<svg width="48" height="48" viewBox="0 0 48 48" fill="none" xmlns="http://www.w3.org/2000/svg">
<g id="book_4_spark">
<mask id="mask0_2019_551" style="mask-type:alpha" maskUnits="userSpaceOnUse" x="0" y="0" width="48" height="48">
<rect id="Bounding box" width="48" height="48" fill="#D9D9D9"/>
</mask>
<g mask="url(#mask0_2019_551)">
<path id="book_4_spark_2" d="M9.2695 33.5617C9.67717 33.2694 10.1288 33.0387 10.6245 32.8697C11.1205 32.7004 11.656 32.6157 12.231 32.6157H14.3845V7.26972H12.231C11.3757 7.26972 10.6682 7.55389 10.1085 8.12222C9.54917 8.69089 9.2695 9.39389 9.2695 10.2312V33.5617ZM12.231 43.0002C10.778 43.0002 9.54283 42.4954 8.5255 41.4857C7.5085 40.4761 7 39.2501 7 37.8077V10.2312C7 8.77822 7.5085 7.54306 8.5255 6.52572C9.54283 5.50872 10.778 5.00022 12.231 5.00022H26.8655V7.26972H16.654V32.6157H30.6155V25.1347H32.8845V34.8847H12.231C11.3937 34.8847 10.6907 35.1616 10.122 35.7152C9.55367 36.2686 9.2695 36.9651 9.2695 37.8047C9.2695 38.6441 9.55367 39.3416 10.122 39.8972C10.6907 40.4529 11.3937 40.7307 12.231 40.7307H38.7305V23.1347H41V43.0002H12.231ZM35 23.1347C35 20.3214 35.9857 17.9289 37.957 15.9572C39.9287 13.9859 42.3212 13.0002 45.1345 13.0002C42.3212 13.0002 39.9287 12.0146 37.957 10.0432C35.9857 8.07156 35 5.67906 35 2.86572C35 5.67906 34.0143 8.07156 32.043 10.0432C30.0713 12.0146 27.6788 13.0002 24.8655 13.0002C27.6788 13.0002 30.0713 13.9859 32.043 15.9572C34.0143 17.9289 35 20.3214 35 23.1347Z" fill="#0041C0"/>
</g>
</g>
</svg>
