<svg width="48" height="48" viewBox="0 0 48 48" fill="none" xmlns="http://www.w3.org/2000/svg">
<g id="contact_mail">
<mask id="mask0_2019_533" style="mask-type:alpha" maskUnits="userSpaceOnUse" x="0" y="0" width="48" height="48">
<rect id="Bounding box" width="48" height="48" fill="#D9D9D9"/>
</mask>
<g mask="url(#mask0_2019_533)">
<path id="contact_mail_2" d="M28.273 22.0498H41.4425V12.9423H28.273V22.0498ZM34.8885 20.1423L29.754 16.3458V14.4613L34.8575 18.2573L39.9615 14.4613V16.3458L34.8885 20.1423ZM3.8845 40.6153C3.10017 40.6153 2.42333 40.3304 1.854 39.7608C1.28467 39.1914 1 38.5146 1 37.7303V10.2693C1 9.48494 1.28467 8.80811 1.854 8.23878C2.42333 7.66911 3.10017 7.38428 3.8845 7.38428H44.1155C44.8998 7.38428 45.5767 7.66911 46.146 8.23878C46.7153 8.80811 47 9.48494 47 10.2693V37.7303C47 38.5146 46.7153 39.1914 46.146 39.7608C45.5767 40.3304 44.8998 40.6153 44.1155 40.6153H3.8845ZM29.05 38.3458H44.1155C44.2692 38.3458 44.4102 38.2818 44.5385 38.1538C44.6665 38.0254 44.7305 37.8843 44.7305 37.7303V10.2693C44.7305 10.1153 44.6665 9.97411 44.5385 9.84578C44.4102 9.71778 44.2692 9.65378 44.1155 9.65378H3.8845C3.73083 9.65378 3.58983 9.71778 3.4615 9.84578C3.3335 9.97411 3.2695 10.1153 3.2695 10.2693V37.7303C3.2695 37.8843 3.3335 38.0254 3.4615 38.1538C3.58983 38.2818 3.73083 38.3458 3.8845 38.3458H4.6965C6.15017 36.3408 7.9255 34.7389 10.0225 33.5403C12.1198 32.3416 14.4033 31.7423 16.873 31.7423C19.3293 31.7423 21.6095 32.3416 23.7135 33.5403C25.8172 34.7389 27.596 36.3408 29.05 38.3458ZM16.873 28.2308C18.3987 28.2308 19.6968 27.6954 20.7675 26.6248C21.8378 25.5544 22.373 24.2564 22.373 22.7308C22.373 21.2051 21.8378 19.9069 20.7675 18.8363C19.6968 17.7659 18.3987 17.2308 16.873 17.2308C15.3347 17.2308 14.0335 17.7659 12.9695 18.8363C11.9052 19.9069 11.373 21.2051 11.373 22.7308C11.373 24.2564 11.9052 25.5544 12.9695 26.6248C14.0335 27.6954 15.3347 28.2308 16.873 28.2308ZM7.6695 38.3458H26.0575C24.8835 36.9751 23.4958 35.9101 21.8945 35.1508C20.2928 34.3911 18.617 34.0113 16.867 34.0113C15.1173 34.0113 13.4433 34.3928 11.845 35.1558C10.247 35.9191 8.85517 36.9824 7.6695 38.3458ZM16.874 25.9613C15.972 25.9613 15.208 25.6484 14.582 25.0228C13.9557 24.3968 13.6425 23.6329 13.6425 22.7313C13.6425 21.8296 13.9553 21.0656 14.581 20.4393C15.207 19.8129 15.9708 19.4998 16.8725 19.4998C17.7742 19.4998 18.5382 19.8128 19.1645 20.4388C19.7908 21.0644 20.104 21.8281 20.104 22.7298C20.104 23.6318 19.791 24.3958 19.165 25.0218C18.5393 25.6481 17.7757 25.9613 16.874 25.9613Z" fill="#0041C0"/>
</g>
</g>
</svg>
