<svg width="49" height="48" viewBox="0 0 49 48" fill="none" xmlns="http://www.w3.org/2000/svg">
<g id="forward_to_inbox">
<mask id="mask0_2019_539" style="mask-type:alpha" maskUnits="userSpaceOnUse" x="0" y="0" width="49" height="48">
<rect id="Bounding box" x="0.666748" width="48" height="48" fill="#D9D9D9"/>
</mask>
<g mask="url(#mask0_2019_539)">
<path id="forward_to_inbox_2" d="M24.6667 24.304L7.93625 13.2305V36.1155C7.93625 36.2948 7.99392 36.4422 8.10925 36.5575C8.22458 36.6728 8.37191 36.7305 8.55125 36.7305H27.5322V39H8.55125C7.76691 39 7.09008 38.7153 6.52075 38.146C5.95141 37.5767 5.66675 36.8998 5.66675 36.1155V11.8845C5.66675 11.1002 5.95141 10.4233 6.52075 9.854C7.09008 9.28467 7.76691 9 8.55125 9H40.7822C41.5666 9 42.2434 9.28467 42.8128 9.854C43.3821 10.4233 43.6668 11.1002 43.6668 11.8845V26.8655H41.3973V13.2305L24.6667 24.304ZM24.6667 21.919L41.0898 11.2695H8.24375L24.6667 21.919ZM38.7898 44.646L37.2092 43.0655L41.2053 39H30.4167V36.7305H41.2243L37.1593 32.6655L38.7898 31.0845L45.5708 37.8655L38.7898 44.646ZM7.93625 13.2305V38.1805V26.8655V27.1425V11.2695V13.2305Z" fill="#0041C0"/>
</g>
</g>
</svg>
