<svg width="135" height="20" viewBox="0 0 135 20" fill="none" xmlns="http://www.w3.org/2000/svg">
<g clip-path="url(#clip0_2001_607)">
<path d="M133.56 17.7213C132.504 18.8283 131.31 19.4874 129.81 19.7932C128.797 20 127.908 20.0388 126.882 19.9354C125.52 19.7932 124.391 19.3539 123.296 18.5354C122.399 17.8678 121.752 17.1398 121.196 16.1749C120.761 15.4254 120.511 14.7232 120.368 13.866C120.17 12.6815 120.226 11.639 120.537 10.476C121.248 7.83976 123.235 5.96597 125.912 5.4103C127.439 5.09154 128.801 5.126 130.31 5.51368C131.387 5.79367 132.241 6.25888 133.056 7.01702C133.569 7.49515 133.935 7.97329 134.259 8.58927C134.642 9.32156 134.798 10.0323 134.75 10.8594H129.978C129.874 10.2218 129.568 9.70924 129.051 9.31725C128.383 8.80896 127.52 8.76588 126.809 9.20956C126.322 9.51109 125.999 9.92462 125.826 10.4717C125.412 11.7726 125.395 12.9873 125.766 14.3011C125.921 14.8568 126.184 15.2918 126.602 15.6838C127.081 16.1361 127.676 16.3257 128.327 16.2309C128.732 16.1706 129.064 15.994 129.335 15.6881C129.62 15.3694 129.784 15.0334 129.861 14.6112C129.913 14.3183 129.943 14.0642 129.96 13.767H134.992C135.095 15.2832 134.612 16.6143 133.565 17.717" fill="#0041C0"/>
<path d="M119.532 0H114.311V3.68727H119.532V0Z" fill="#0041C0"/>
<path d="M119.532 5.5826H114.311V19.5348H119.532V5.5826Z" fill="#0041C0"/>
<path d="M103.495 7.05579C104.18 6.45704 104.836 6.03059 105.663 5.65152C107.013 5.02693 108.362 4.92785 109.789 5.34569C111.319 5.79367 112.423 6.87056 112.906 8.38682C113.139 9.1148 113.238 9.76524 113.238 10.532V19.5391H107.694V11.4409C107.694 11.1695 107.659 10.9412 107.582 10.6828C107.44 10.2175 107.133 9.87724 106.681 9.6834C105.698 9.26557 104.581 9.63602 104.038 10.5578C103.814 10.9412 103.71 11.3203 103.71 11.764V19.5391H98.3389V5.5826H103.378L103.495 7.05579Z" fill="#0041C0"/>
<path d="M41.7347 7.05579C42.4202 6.45704 43.0755 6.03059 43.9032 5.65152C45.2525 5.02693 46.6019 4.92785 48.0289 5.34569C49.5593 5.79367 50.6629 6.87056 51.1457 8.38682C51.3785 9.1148 51.4777 9.76524 51.4777 10.532V19.5391H45.9337V11.4409C45.9337 11.1695 45.8992 10.9412 45.8216 10.6828C45.6793 10.2175 45.3689 9.87724 44.9206 9.6834C43.9377 9.26557 42.8211 9.63602 42.2822 10.5578C42.058 10.9412 41.9546 11.3203 41.9546 11.764V19.5391H36.583V5.5826H41.6226L41.739 7.05579" fill="#0041C0"/>
<path d="M74.6453 14.4002C75.0462 14.4691 75.3782 14.5509 75.7661 14.6802C76.0852 14.7878 76.3093 15.0334 76.3783 15.3651C76.4516 15.7226 76.3525 16.0629 76.0938 16.3256C75.8308 16.5884 75.5334 16.7435 75.1626 16.7995C74.6711 16.877 74.2357 16.8382 73.7658 16.6659C73.5373 16.5841 73.3606 16.4807 73.1752 16.3256C72.9338 16.1232 72.7786 15.8949 72.6881 15.5934C72.6105 15.3392 72.5803 15.1152 72.5846 14.8482H67.4717V15.1454C67.4717 15.6278 67.545 16.0327 67.7174 16.4807C67.9718 17.157 68.3253 17.6825 68.8555 18.1736C69.5496 18.8197 70.2696 19.2246 71.1835 19.4831C73.076 20.0215 74.7789 20.1292 76.7189 19.8277C77.6285 19.6898 78.383 19.4443 79.2021 19.0179C79.5642 18.8283 79.853 18.6388 80.1634 18.376C81.5473 17.2173 82.056 15.4469 81.5042 13.7325C81.2972 13.0864 80.9653 12.5867 80.4523 12.143C79.7452 11.5313 79.0339 11.1437 78.1372 10.8852C77.9389 10.8292 77.7751 10.7818 77.5768 10.7258C76.4818 10.42 75.542 10.2218 74.4168 10.0538C74.115 10.0108 73.8607 9.95907 73.5632 9.89015C73.4252 9.86 73.3132 9.82123 73.1838 9.76092C72.8691 9.61877 72.7312 9.24832 72.8734 8.93387C72.8821 8.91664 72.8907 8.90372 72.8993 8.88649C73.0674 8.58496 73.3175 8.38681 73.6494 8.29205C74.2314 8.12405 74.7703 8.13697 75.3437 8.33081C75.8955 8.52035 76.2404 9.02002 76.2145 9.60154H81.142C81.142 8.99849 81.0472 8.48589 80.8403 7.91729C80.6333 7.34007 80.3143 6.9007 79.8358 6.52164C79.4176 6.18996 79.0167 5.96166 78.5166 5.76782C78.0295 5.57828 77.6027 5.46198 77.0853 5.37152C75.8653 5.16045 74.8134 5.10014 73.5761 5.17337C72.8691 5.21645 72.2742 5.3026 71.5801 5.46198C70.6489 5.68166 69.8988 6.03919 69.1487 6.62933C68.5106 7.129 68.0925 7.71483 67.8252 8.48158C67.7045 8.82618 67.6441 9.13633 67.6312 9.50247C67.6053 10.1141 67.6915 10.6354 67.92 11.204C68.3253 12.2248 69.0495 12.9485 70.0712 13.3534C70.5886 13.5602 71.0412 13.6937 71.5887 13.8057C72.6665 14.0254 73.5761 14.1977 74.6582 14.3829" fill="#0041C0"/>
<path d="M13.5188 13.5171H9.93632V8.93819H12.2643C12.7083 8.93819 13.0834 8.92957 13.5231 8.90373C14.1353 8.86927 14.644 8.59789 15.0104 8.10252C15.2044 7.83976 15.3122 7.577 15.3596 7.25393C15.3984 6.98255 15.4027 6.74995 15.3769 6.47857C15.2777 5.46199 14.4328 4.69524 13.411 4.69524H9.94063V19.5348H4V0H13.6999C14.0836 0 14.4112 0.00861512 14.7949 0.0301529C17.3686 0.167995 19.4853 1.5981 20.576 3.92849C21.1451 5.14323 21.3391 6.31058 21.1925 7.64161C20.8864 10.4458 18.9206 12.6298 16.1615 13.2328C15.2475 13.4353 14.4543 13.5171 13.5188 13.5171Z" fill="#0041C0"/>
<path d="M91.398 5.31121C90.8462 5.22506 90.3762 5.18629 89.8158 5.18629C89.2554 5.18629 88.7855 5.22076 88.2337 5.31121C86.6299 5.56105 85.3323 6.20719 84.1597 7.33146C82.9095 8.53327 82.224 9.95907 82.0645 11.6864C81.9697 12.7461 82.0516 13.6636 82.3361 14.6888C82.7716 16.2653 83.595 17.4801 84.8969 18.4751C85.7505 19.1299 86.6041 19.5219 87.656 19.7545C88.4018 19.9181 89.0528 19.9871 89.8158 19.9871C90.5789 19.9871 91.2298 19.9181 91.9757 19.7545C93.0276 19.5262 93.8768 19.1299 94.7347 18.4751L91.7342 15.2057C91.2557 16.2653 90.0141 16.7349 88.9536 16.261C88.4665 16.0413 88.1173 15.6967 87.8974 15.2057C87.6948 14.7534 87.5741 14.3485 87.5008 13.8617C87.3542 12.8796 87.3714 12.031 87.5611 11.0575C87.6603 10.5535 87.8284 10.14 88.1086 9.70923C88.7251 8.77018 89.9883 8.50742 90.9281 9.1234C91.1738 9.28278 91.3549 9.4637 91.5144 9.70923C91.7989 10.14 91.9627 10.5535 92.0619 11.0575C92.2516 12.031 92.2731 12.8839 92.1222 13.8617C92.0489 14.3528 91.9282 14.7577 91.7256 15.2057L94.7261 18.4751C96.0237 17.4801 96.8471 16.2653 97.2869 14.6888C97.5714 13.6636 97.6533 12.7461 97.5585 11.6864C97.399 9.95907 96.7178 8.53327 95.4633 7.33146C94.295 6.20719 92.9931 5.56536 91.3893 5.31121" fill="#0041C0"/>
<path d="M66.8982 18.4364C66.8206 17.2862 66.7775 16.3127 66.7516 15.1583C66.7214 13.642 66.7042 12.3627 66.6912 10.8507C66.6869 10.0323 66.5964 9.3431 66.3895 8.55051C66.1222 7.51239 65.5143 6.7241 64.5745 6.20289C64.0098 5.88844 63.4924 5.69029 62.8587 5.55675C60.8454 5.126 59.065 5.09154 57.0388 5.44045C56.4697 5.53952 55.9955 5.67737 55.4609 5.89705C54.2237 6.40534 53.3744 7.34008 52.9778 8.61512C52.8269 9.10618 52.7838 9.54555 52.8441 10.0538C52.8528 10.1486 52.8786 10.2261 52.9217 10.3123L57.6208 10.4243C57.6078 10.1271 57.6466 9.87293 57.7501 9.59294C57.9053 9.16649 58.2071 8.86065 58.6339 8.70558C59.2633 8.47728 59.8712 8.46436 60.5092 8.67543C60.9274 8.81327 61.2291 9.1148 61.3585 9.53694C61.4404 9.7997 61.4016 10.0582 61.2421 10.2865C61.1041 10.4846 60.9317 10.6181 60.7032 10.7043C60.5652 10.756 60.4445 10.7947 60.2979 10.8335C59.647 11.0101 59.0865 11.1307 58.4183 11.2427C57.8924 11.3289 57.444 11.4107 56.9224 11.5184C56.2111 11.6606 55.6161 11.8156 54.9264 12.0396C54.297 12.2421 53.7969 12.535 53.3097 12.9787C52.676 13.5602 52.3139 14.2451 52.1932 15.098C52.1113 15.6666 52.1328 16.162 52.2578 16.7219C52.5855 18.1779 53.5986 19.2548 55.0341 19.6683C56.6249 20.1292 58.1166 20.056 59.6513 19.4357C60.3971 19.1342 60.9662 18.7207 61.4792 18.1004L61.1472 15.7011C60.9101 16.0672 60.617 16.317 60.2203 16.4936C59.8496 16.6573 59.509 16.7478 59.1038 16.7866C58.7675 16.821 58.4744 16.7952 58.1467 16.7047C57.8794 16.6315 57.6725 16.5066 57.4871 16.3041C57.3276 16.1318 57.2328 15.9466 57.1811 15.7183C57.1078 15.3651 57.2242 15.0291 57.4958 14.7922C57.6811 14.6371 57.8579 14.5294 58.0864 14.4476C58.6296 14.2494 59.0995 14.0986 59.6556 13.9393C60.3324 13.7497 60.8886 13.543 61.5266 13.2501C61.587 13.7583 61.587 14.1977 61.5137 14.706C61.4619 15.0765 61.3498 15.3866 61.1429 15.7011L61.4749 18.1004C61.5783 18.4407 61.6732 18.725 61.7896 19.061C61.8542 19.2462 61.9405 19.3926 62.0698 19.5391H67.2474C67.0275 19.1902 66.9154 18.8499 66.8852 18.4407" fill="#0041C0"/>
<path d="M35.5483 18.4364C35.4707 17.2862 35.4276 16.3127 35.4017 15.1583C35.3716 13.642 35.3543 12.3627 35.3414 10.8507C35.3371 10.0323 35.2465 9.3431 35.0396 8.55051C34.7723 7.51239 34.1645 6.7241 33.2247 6.20289C32.6599 5.88844 32.1426 5.69029 31.5089 5.55675C29.4956 5.126 27.7151 5.09154 25.6889 5.44045C25.1199 5.53952 24.6457 5.67737 24.1111 5.89705C22.8738 6.40534 22.0245 7.34008 21.6279 8.61512C21.477 9.10618 21.4339 9.54555 21.4943 10.0538C21.5072 10.1486 21.5288 10.2261 21.5719 10.3123L26.2709 10.4243C26.258 10.1271 26.2968 9.87293 26.4003 9.59294C26.5555 9.16649 26.8572 8.86065 27.284 8.70558C27.9134 8.47728 28.5213 8.46436 29.1593 8.67543C29.5818 8.81327 29.8793 9.1148 30.0086 9.53694C30.0905 9.7997 30.0517 10.0582 29.8922 10.2865C29.75 10.4846 29.5818 10.6181 29.3533 10.7043C29.2154 10.756 29.0947 10.7947 28.9481 10.8335C28.2971 11.0101 27.7367 11.1307 27.0685 11.2427C26.5425 11.3289 26.0942 11.4107 25.5725 11.5184C24.8612 11.6606 24.2663 11.8156 23.5765 12.0396C22.9471 12.2421 22.4513 12.535 21.9599 12.9787C21.3261 13.5602 20.964 14.2451 20.8433 15.098C20.7614 15.6666 20.783 16.162 20.908 16.7219C21.2356 18.1779 22.2487 19.2548 23.6843 19.6683C25.2751 20.1292 26.7667 20.056 28.3014 19.4357C29.0472 19.1342 29.6163 18.7207 30.1336 18.1004L29.8017 15.7011C29.5646 16.0672 29.2714 16.317 28.8748 16.4936C28.5041 16.6573 28.1635 16.7478 27.7582 16.7866C27.4177 16.821 27.1288 16.7952 26.8012 16.7047C26.5339 16.6315 26.327 16.5066 26.1373 16.3041C25.9778 16.1318 25.8829 15.9466 25.8355 15.7183C25.7622 15.3651 25.8786 15.0291 26.1502 14.7922C26.3356 14.6371 26.5123 14.5294 26.7408 14.4476C27.284 14.2494 27.7539 14.0986 28.3101 13.9393C28.9869 13.7497 29.543 13.543 30.1811 13.2501C30.2414 13.7583 30.2414 14.1977 30.1681 14.706C30.1164 15.0765 30.0043 15.3866 29.7974 15.7011L30.1293 18.1004C30.2328 18.4407 30.3276 18.725 30.444 19.061C30.5087 19.2462 30.5949 19.3926 30.7242 19.5391H35.9018C35.682 19.1902 35.5699 18.8499 35.5397 18.4407" fill="#0041C0"/>
</g>
<defs>
<clipPath id="clip0_2001_607">
<rect width="135" height="20" fill="white"/>
</clipPath>
</defs>
</svg>
